<svg width="35" height="35" viewBox="0 0 35 35" fill="none" xmlns="http://www.w3.org/2000/svg">
<g clip-path="url(#clip0_2108_537)">
<path d="M16.1913 0.125821C15.0632 0.211038 13.8012 0.430169 12.7826 0.718285C12.32 0.852198 12.1496 0.904951 12.0197 0.957705C11.9467 0.990169 11.8614 1.01452 11.829 1.01452C11.7965 1.01452 11.7113 1.03886 11.6383 1.07133C11.5652 1.10379 11.4272 1.15655 11.3339 1.19307C10.8226 1.38379 10.8429 1.37568 10.3275 1.60698C10.007 1.74901 9.25623 2.12234 8.94783 2.29684C8.81391 2.36988 8.66783 2.45104 8.62319 2.47539C8.57855 2.49973 8.48928 2.55249 8.42029 2.59713C8.35536 2.64176 8.2742 2.69046 8.24174 2.70263C8.12406 2.7635 7.27188 3.34785 6.88232 3.64002C6.03826 4.27713 4.94261 5.29973 4.32174 6.02611C4.16754 6.20466 4.02957 6.35886 4.01739 6.37104C3.99304 6.39133 3.54667 6.95944 3.38841 7.17452C3.05565 7.63307 2.89333 7.86031 2.86899 7.91307C2.85275 7.94553 2.7513 8.11191 2.64174 8.27828C2.52812 8.44466 2.3942 8.66379 2.34145 8.76524C2.28464 8.86669 2.20348 9.01278 2.15884 9.08988C2.00058 9.36176 1.49333 10.4047 1.3513 10.7415C1.3229 10.8145 1.2742 10.9363 1.24174 11.0052C1.21333 11.0783 1.15652 11.2203 1.11594 11.3218C1.07942 11.4232 1.02261 11.5652 0.990145 11.6383C0.957681 11.7113 0.933333 11.7965 0.933333 11.829C0.933333 11.8615 0.908985 11.9467 0.876522 12.0197C0.848116 12.0928 0.791304 12.2632 0.750725 12.3971C0.710145 12.531 0.657391 12.7218 0.624928 12.8232C0.243478 14.1421 0 15.9316 0 17.4493C0 18.967 0.243478 20.7565 0.624928 22.0754C0.657391 22.1768 0.710145 22.3676 0.750725 22.5015C0.791304 22.6354 0.848116 22.8058 0.876522 22.8789C0.908985 22.9519 0.933333 23.0371 0.933333 23.0696C0.933333 23.1021 0.957681 23.1873 0.990145 23.2603C1.02261 23.3334 1.07942 23.4754 1.11594 23.5768C1.15652 23.6783 1.21333 23.8203 1.24174 23.8893C1.2742 23.9623 1.32696 24.0881 1.35942 24.1652C1.39188 24.2423 1.44464 24.3681 1.4771 24.4412C1.56232 24.64 2.06551 25.6505 2.15072 25.7925C2.1913 25.8615 2.26841 25.9994 2.32116 26.0968C2.47536 26.385 2.93391 27.087 3.27478 27.5618C3.49391 27.8702 3.97681 28.4951 4.01739 28.5276C4.02957 28.5397 4.16754 28.6939 4.32174 28.8725C4.95072 29.611 6.02609 30.6093 6.88232 31.2586C7.27188 31.5508 8.12 32.1351 8.24174 32.196C8.2742 32.2081 8.35536 32.2568 8.42029 32.3015C8.48928 32.3461 8.57855 32.3989 8.62319 32.4232C8.66783 32.4476 8.81391 32.5287 8.94783 32.6018C9.25623 32.7763 10.007 33.1496 10.3275 33.2916C10.8429 33.5229 10.8226 33.5148 11.3339 33.7055C11.4272 33.7421 11.5652 33.7948 11.6383 33.8273C11.7113 33.8597 11.7965 33.8841 11.829 33.8841C11.8614 33.8841 11.9467 33.9084 12.0197 33.9409C12.182 34.0099 12.7948 34.1925 13.2493 34.3061C15.538 34.8742 18.2893 34.9716 20.4725 34.5658C20.6064 34.5415 20.7971 34.509 20.8986 34.4928C21 34.4765 21.1745 34.44 21.2841 34.4116C21.3977 34.3873 21.5965 34.3386 21.7304 34.3061C21.8643 34.2737 22.0591 34.2209 22.1606 34.1884C22.2661 34.156 22.3797 34.1276 22.4162 34.1276C22.4487 34.1276 22.538 34.1032 22.611 34.0708C22.6841 34.0423 22.9275 33.9571 23.1507 33.8881C23.5484 33.7583 23.7594 33.6812 24.0029 33.5757C24.0719 33.5473 24.2261 33.4864 24.3478 33.4377C24.5791 33.3444 25.2122 33.0522 25.3217 32.9913C25.3542 32.971 25.5287 32.8818 25.7072 32.7884C26.1455 32.5652 26.4296 32.3989 26.7136 32.2122C26.8435 32.127 26.9571 32.058 26.9652 32.058C26.9733 32.058 27.0991 31.9768 27.2452 31.8754C27.3913 31.7739 27.6307 31.6116 27.7728 31.5142C27.9148 31.4128 28.0649 31.3073 28.1096 31.2707C28.1501 31.2383 28.3003 31.1125 28.4464 30.9989C29.1159 30.4673 29.6678 29.956 30.3861 29.1971C31.1165 28.4302 32.0701 27.1519 32.6099 26.2145C32.7194 26.0238 32.829 25.8371 32.8493 25.8006C33.0603 25.4394 33.6812 24.1287 33.6812 24.0476C33.6812 24.0151 33.6974 23.9786 33.7217 23.9623C33.742 23.9502 33.7786 23.8812 33.7988 23.8081C33.8191 23.7351 33.8759 23.5768 33.9246 23.4551C33.9693 23.3334 34.0464 23.1142 34.091 22.9681C34.1397 22.8221 34.2006 22.6394 34.229 22.5623C34.2777 22.4284 34.3507 22.1647 34.4725 21.6899C34.5861 21.2557 34.6267 21.0731 34.6551 20.8986C34.6713 20.7971 34.7038 20.6064 34.7281 20.4725C34.9067 19.5229 35 18.4719 35 17.4493C35 16.4267 34.9067 15.3757 34.7281 14.4261C34.7038 14.2922 34.6713 14.1015 34.6551 14C34.6267 13.8215 34.5901 13.6713 34.4643 13.1681C34.3467 12.7177 34.2817 12.4783 34.229 12.3363C34.2006 12.2592 34.1397 12.0765 34.091 11.9305C34.0464 11.7844 33.9693 11.5652 33.9246 11.4435C33.8759 11.3218 33.8191 11.1635 33.7988 11.0905C33.7786 11.0174 33.742 10.9484 33.7217 10.9363C33.6974 10.92 33.6812 10.8835 33.6812 10.851C33.6812 10.7699 33.0603 9.45915 32.8493 9.098C32.829 9.06147 32.7194 8.87481 32.6099 8.68408C32.2243 8.01452 31.6157 7.15423 30.9258 6.30611C30.1791 5.38495 28.767 4.08234 27.7403 3.36814C27.2209 3.00292 26.9774 2.8406 26.9652 2.8406C26.9571 2.8406 26.8435 2.77162 26.7136 2.6864C26.4296 2.49973 26.1455 2.33336 25.7072 2.11017C25.5287 2.01684 25.3542 1.92756 25.3217 1.90727C25.2893 1.89104 25.1432 1.81799 24.9971 1.75307C24.851 1.68408 24.6116 1.57452 24.4574 1.50553C24.3072 1.43655 24.1652 1.37973 24.1409 1.37973C24.1165 1.37973 24.0475 1.35539 23.9907 1.32292C23.8325 1.24176 23.6093 1.1606 23.1507 1.01046C22.9275 0.941473 22.6841 0.856256 22.611 0.82785C22.538 0.795386 22.4487 0.771038 22.4162 0.771038C22.3797 0.771038 22.2661 0.742632 22.1606 0.710169C22.0591 0.677705 21.8643 0.624951 21.7304 0.592487C21.5965 0.560024 21.3977 0.511328 21.2841 0.48698C21.1745 0.458574 21 0.422053 20.8986 0.405821C20.7971 0.389589 20.6064 0.357125 20.4725 0.332777C19.2875 0.109589 17.5426 0.0284294 16.1913 0.125821V0.125821ZM11.5652 3.73336C12.9003 4.84524 13.0464 4.96698 13.6186 5.43771C13.7971 5.58379 13.9594 5.71771 13.9838 5.74205C14.0081 5.76234 14.1542 5.88408 14.3043 6.00582C14.4545 6.12756 14.9739 6.55771 15.4568 6.95944C15.9397 7.36118 16.4226 7.75886 16.5241 7.84408C16.6296 7.92524 16.7675 8.05104 16.8365 8.11597L16.9583 8.23771L16.9339 15.6151C16.9096 23.7351 16.9339 23.0858 16.662 23.167C16.4835 23.2238 15.887 23.4348 15.6232 23.5363C15.5014 23.585 15.3554 23.6377 15.2986 23.658C15.2417 23.6783 15.0957 23.731 14.9739 23.7797C14.8522 23.8284 14.698 23.8852 14.629 23.9015C14.5113 23.9339 14.4099 23.9745 13.9594 24.145C13.8377 24.1936 13.6916 24.2464 13.6348 24.2667C13.578 24.287 13.4319 24.3397 13.3101 24.3884C13.1884 24.4371 13.0423 24.4858 12.9855 24.498C12.9287 24.5102 12.8678 24.5345 12.8435 24.5508C12.8232 24.567 12.738 24.6035 12.6609 24.6238C12.5838 24.6481 12.4174 24.705 12.2957 24.7536C12.1739 24.8023 12.0278 24.8551 11.971 24.8754C11.9142 24.8957 11.7681 24.9484 11.6464 24.9971C11.5246 25.0458 11.3664 25.0986 11.3014 25.1148C11.2325 25.131 11.1391 25.1716 11.0945 25.2C11.0458 25.2284 10.9768 25.2406 10.9403 25.2284C10.8794 25.2041 10.8754 24.6197 10.8754 17.9444C10.8754 10.2545 10.9119 3.2464 10.9525 3.2464C10.9687 3.2464 11.2446 3.46553 11.5652 3.73336V3.73336ZM24.287 14.2476V25.2203L24.1936 25.2325C24.1409 25.2406 24.0759 25.2244 24.0435 25.2C24.011 25.1716 23.9258 25.1351 23.8528 25.1189C23.7797 25.0986 23.6174 25.0458 23.4957 24.9971C23.3739 24.9484 23.2278 24.8957 23.171 24.8754C23.1142 24.8551 22.9681 24.8023 22.8464 24.7536C22.7246 24.709 22.4974 24.6238 22.3391 24.571C22.1849 24.5183 21.9536 24.4371 21.8319 24.3884C21.7101 24.3397 21.5641 24.287 21.5072 24.2667C21.4504 24.2464 21.3043 24.1936 21.1826 24.145C20.7322 23.9745 20.6307 23.9339 20.513 23.9015C20.4481 23.8852 20.2899 23.8284 20.1681 23.7797C20.0464 23.731 19.9003 23.6783 19.8435 23.658C19.7867 23.6377 19.6406 23.585 19.5188 23.5363C19.3971 23.4876 19.1699 23.4064 19.0116 23.3536C18.4516 23.1589 18.3623 23.1223 18.2933 23.0615C18.2243 23.0006 18.2203 22.5907 18.2203 15.6029V8.2093L18.5084 7.96988C18.6707 7.83597 18.8777 7.66553 18.971 7.58843C19.0643 7.51133 19.2267 7.37336 19.3362 7.28408C19.4417 7.19481 19.6162 7.05278 19.7177 6.9635C19.8191 6.87829 19.9409 6.78089 19.9855 6.74031C20.3751 6.42379 20.5212 6.30611 20.5577 6.26959C20.582 6.2493 20.7281 6.12756 20.8783 6.00582C21.0284 5.88408 21.5559 5.44582 22.0551 5.03191C22.5542 4.618 23.0817 4.17973 23.2319 4.058C23.382 3.93626 23.5362 3.8064 23.5728 3.77394C23.6093 3.73742 23.731 3.64002 23.8406 3.55075C23.9542 3.46147 24.08 3.35597 24.1246 3.31539C24.1652 3.27886 24.222 3.25046 24.2464 3.25857C24.2748 3.27075 24.287 6.65104 24.287 14.2476V14.2476ZM23.9217 26.9652C24.0435 27.0261 24.1125 27.0992 24.1977 27.2655C24.2951 27.4603 24.3072 27.5334 24.3072 27.8621C24.3072 28.069 24.2951 28.2638 24.2829 28.3003C24.2626 28.3531 24.1896 28.3652 23.9258 28.3652C23.7229 28.3652 23.5728 28.345 23.5443 28.3165C23.5159 28.2881 23.4957 28.1502 23.4957 27.9797C23.4957 27.8093 23.4754 27.6713 23.447 27.6429C23.382 27.578 23.0452 27.5821 22.96 27.651C22.8991 27.6957 22.887 27.7687 22.887 28.0365C22.887 28.4545 22.9722 28.6331 23.2522 28.7873C23.8243 29.1079 24.0719 29.3148 24.222 29.6029C24.2991 29.749 24.3072 29.8302 24.3072 30.447C24.3072 31.0354 24.2951 31.149 24.2301 31.2789C24.0516 31.6238 23.8812 31.6928 23.1791 31.6928C22.6191 31.6928 22.6151 31.6928 22.4528 31.5751C22.1403 31.3479 22.1159 31.287 22.1159 30.6621V30.1061L22.4933 30.1183L22.8667 30.1305L22.8788 30.4916C22.887 30.6945 22.9113 30.8812 22.9357 30.9096C22.9681 30.9502 23.0574 30.9623 23.2278 30.9542L23.4754 30.9421L23.4875 30.4592L23.4997 29.9803L23.3414 29.8302C23.2562 29.749 23.0696 29.611 22.9275 29.5258C22.607 29.3351 22.3067 29.051 22.1971 28.84C22.1241 28.7061 22.1159 28.6047 22.1159 28.0365C22.1159 27.4279 22.12 27.3792 22.2133 27.2371C22.4122 26.9247 22.5867 26.8638 23.2725 26.876C23.658 26.8841 23.7919 26.9044 23.9217 26.9652V26.9652ZM12.6487 27.0626C12.9368 27.2696 12.9855 27.4238 12.9855 28.1055C12.9855 28.7467 12.949 28.8847 12.7258 29.0916L12.6203 29.189L12.7826 29.327C13.0017 29.5177 13.0667 29.749 13.0667 30.3577C13.0667 30.9502 13.018 31.1896 12.8597 31.3844C12.6528 31.6319 12.5594 31.6522 11.5855 31.6522C10.8348 31.6522 10.7171 31.6441 10.6968 31.5873C10.6643 31.5021 10.6643 27.0058 10.7009 26.9734C10.713 26.9571 11.1229 26.945 11.6058 26.945H12.4864L12.6487 27.0626ZM18.9264 27.0667C18.9183 27.1722 18.8574 27.3751 18.7722 27.5536C18.7275 27.647 18.6991 27.6551 18.3623 27.6754L17.9971 27.6957L17.9849 29.6922L17.9768 31.6928H17.6157C17.3194 31.6928 17.2504 31.6806 17.2301 31.6279C17.2139 31.5913 17.2058 30.7107 17.2058 29.6679V27.7241C17.2058 27.6916 17.1084 27.6754 16.8649 27.6754C16.4875 27.6754 16.4754 27.6673 16.3739 27.3913C16.1954 26.9044 16.0858 26.9409 17.6197 26.9531L18.9304 26.9652L18.9264 27.0667Z" fill="black"/>
<path d="M11.5531 27.6632C11.5368 27.6753 11.5247 27.9472 11.5247 28.2678C11.5247 28.7548 11.5328 28.8481 11.5896 28.8684C11.6992 28.909 12.036 28.8927 12.0847 28.844C12.1171 28.8116 12.1334 28.6168 12.1334 28.2394C12.1334 27.7687 12.1252 27.6794 12.0684 27.6591C11.9832 27.6267 11.5855 27.6267 11.5531 27.6632ZM11.5571 29.6069C11.5368 29.6232 11.5247 29.9275 11.5247 30.2806V30.9217H11.8493C12.2632 30.9217 12.2673 30.9136 12.251 30.2684C12.2307 29.68 12.1942 29.6191 11.8209 29.5907C11.691 29.5826 11.5734 29.5907 11.5571 29.6069V29.6069Z" fill="black"/>
</g>
<defs>
<clipPath id="clip0_2108_537">
<rect width="35" height="35" fill="white"/>
</clipPath>
</defs>
</svg>
